# WaveFront *.obj file (generated by Autodesk ATF)

mtllib diamond.mtl

g Body79

v -15.204848 6.500000 51.175385
v -26.857128 6.500000 32.507956
v -15.245694 0.000000 32.507956
v -15.204848 0.000000 32.573393
v -15.204848 0.000000 32.442520
v -15.204848 6.500000 13.840528
v -3.552568 6.500000 32.507956
v -15.164002 0.000000 32.507956
v -15.204848 13.000000 32.442520
v -15.164002 13.000000 32.507956
v -15.204848 13.000000 32.573393
v -15.245694 13.000000 32.507956
vt 1.892063 0.590069 0.000000
vt -0.308502 0.590069 0.000000
vt 0.314053 -0.590069 0.000000
vt 0.306339 -0.590069 0.000000
vt 0.793943 -0.590069 0.000000
vt 1.408784 0.590069 0.000000
vt 0.786230 -0.590069 0.000000
vt -0.791781 0.590069 0.000000
vt -0.791781 0.590069 0.000000
vt 0.786230 -0.590069 0.000000
vt 1.408784 0.590069 0.000000
vt 0.793943 -0.590069 0.000000
vt 1.892063 0.590069 0.000000
vt -0.308502 0.590069 0.000000
vt 0.314053 -0.590069 0.000000
vt 0.306339 -0.590069 0.000000
vt -0.000000 -0.006544 0.000000
vt 0.004085 0.000000 0.000000
vt -0.004085 0.000000 0.000000
vt -0.000000 0.006544 0.000000
vt 0.306339 0.590069 0.000000
vt -0.308502 -0.590069 0.000000
vt 0.314053 0.590069 0.000000
vt 1.892063 -0.590069 0.000000
vt 0.793943 0.590069 0.000000
vt 0.786230 0.590069 0.000000
vt 1.408784 -0.590069 0.000000
vt -0.791781 -0.590069 0.000000
vt 0.306339 0.590069 0.000000
vt -0.308502 -0.590069 0.000000
vt 0.314053 0.590069 0.000000
vt 1.892063 -0.590069 0.000000
vt -0.791781 -0.590069 0.000000
vt 1.408784 -0.590069 0.000000
vt 0.786230 0.590069 0.000000
vt 0.793943 0.590069 0.000000
vt -0.000000 0.004085 0.000000
vt -0.006544 0.000000 0.000000
vt 0.006544 0.000000 0.000000
vt 0.000000 -0.004085 0.000000
vn -0.046723 -0.083465 0.029165
vn -0.046723 -0.083465 0.029165
vn -0.046723 -0.083465 0.029165
vn -0.046723 -0.083465 0.029165
vn -0.046723 -0.083465 -0.029165
vn -0.046723 -0.083465 -0.029165
vn -0.046723 -0.083465 -0.029165
vn -0.046723 -0.083465 -0.029165
vn 0.046723 -0.083465 0.029165
vn 0.046723 -0.083465 0.029165
vn 0.046723 -0.083465 0.029165
vn 0.046723 -0.083465 0.029165
vn 0.046723 -0.083465 -0.029165
vn 0.046723 -0.083465 -0.029165
vn 0.046723 -0.083465 -0.029165
vn 0.046723 -0.083465 -0.029165
vn 0.000000 -0.100000 0.000000
vn 0.000000 -0.100000 0.000000
vn 0.000000 -0.100000 0.000000
vn 0.000000 -0.100000 0.000000
vn 0.046723 0.083465 -0.029165
vn 0.046723 0.083465 -0.029165
vn 0.046723 0.083465 -0.029165
vn 0.046723 0.083465 -0.029165
vn 0.046723 0.083465 0.029165
vn 0.046723 0.083465 0.029165
vn 0.046723 0.083465 0.029165
vn 0.046723 0.083465 0.029165
vn -0.046723 0.083465 0.029165
vn -0.046723 0.083465 0.029165
vn -0.046723 0.083465 0.029165
vn -0.046723 0.083465 0.029165
vn -0.046723 0.083465 -0.029165
vn -0.046723 0.083465 -0.029165
vn -0.046723 0.083465 -0.029165
vn -0.046723 0.083465 -0.029165
vn 0.000000 0.100000 0.000000
vn 0.000000 0.100000 0.000000
vn 0.000000 0.100000 0.000000
vn 0.000000 0.100000 0.000000
usemtl Steel_-_Satin
f 1/1/1 2/2/2 4/3/3
f 4/3/3 2/2/2 3/4/4
f 3/5/5 2/6/6 5/7/7
f 5/7/7 2/6/6 6/8/8
f 1/9/9 4/10/10 7/11/11
f 7/11/11 4/10/10 8/12/12
f 6/13/13 7/14/14 5/15/15
f 5/15/15 7/14/14 8/16/16
f 4/17/17 3/18/18 8/19/19
f 8/19/19 3/18/18 5/20/20
f 10/21/21 7/22/22 9/23/23
f 9/23/23 7/22/22 6/24/24
f 10/25/25 11/26/26 7/27/27
f 7/27/27 11/26/26 1/28/28
f 12/29/29 2/30/30 11/31/31
f 11/31/31 2/30/30 1/32/32
f 6/33/33 2/34/34 9/35/35
f 9/35/35 2/34/34 12/36/36
f 10/37/37 9/38/38 11/39/39
f 11/39/39 9/38/38 12/40/40
# 12 vertices
# 40 texture params
# 40 normals
# 20 facets

# 1 groups
